<svg width="21" height="23" viewBox="0 0 21 23" fill="none" xmlns="http://www.w3.org/2000/svg">
<path d="M15 20.5H6C5.10489 20.5 4.24645 20.1444 3.61351 19.5115C2.98058 18.8786 2.625 18.0201 2.625 17.125V5.875C2.625 5.57663 2.50647 5.29048 2.29549 5.0795C2.08452 4.86853 1.79837 4.75 1.5 4.75C1.20163 4.75 0.915483 4.86853 0.704505 5.0795C0.493526 5.29048 0.375 5.57663 0.375 5.875V17.125C0.375 18.6168 0.967632 20.0476 2.02252 21.1025C3.07742 22.1574 4.50816 22.75 6 22.75H15C15.2984 22.75 15.5845 22.6315 15.7955 22.4205C16.0065 22.2095 16.125 21.9234 16.125 21.625C16.125 21.3266 16.0065 21.0405 15.7955 20.8295C15.5845 20.6185 15.2984 20.5 15 20.5ZM20.625 8.0575C20.6133 7.95415 20.5907 7.85233 20.5575 7.75375V7.6525C20.5034 7.53683 20.4313 7.4305 20.3438 7.3375L13.5938 0.5875C13.5008 0.499993 13.3944 0.427841 13.2788 0.37375H13.1775L12.8175 0.25H8.25C7.35489 0.25 6.49645 0.605579 5.86351 1.23851C5.23058 1.87145 4.875 2.72989 4.875 3.625V14.875C4.875 15.7701 5.23058 16.6286 5.86351 17.2615C6.49645 17.8944 7.35489 18.25 8.25 18.25H17.25C18.1451 18.25 19.0036 17.8944 19.6365 17.2615C20.2694 16.6286 20.625 15.7701 20.625 14.875V8.125C20.625 8.125 20.625 8.125 20.625 8.0575ZM13.875 4.08625L16.7887 7H15C14.7016 7 14.4155 6.88147 14.2045 6.6705C13.9935 6.45952 13.875 6.17337 13.875 5.875V4.08625ZM18.375 14.875C18.375 15.1734 18.2565 15.4595 18.0455 15.6705C17.8345 15.8815 17.5484 16 17.25 16H8.25C7.95163 16 7.66548 15.8815 7.4545 15.6705C7.24353 15.4595 7.125 15.1734 7.125 14.875V3.625C7.125 3.32663 7.24353 3.04048 7.4545 2.8295C7.66548 2.61853 7.95163 2.5 8.25 2.5H11.625V5.875C11.625 6.77011 11.9806 7.62855 12.6135 8.26149C13.2464 8.89442 14.1049 9.25 15 9.25H18.375V14.875Z" fill="white"/>
</svg>
